<svg width="500" height="500" viewBox="0 0 500 500" fill="none" xmlns="http://www.w3.org/2000/svg">
<rect width="500" height="500" rx="60" fill="black"/>
<path d="M395.66 125C402.227 125 407.012 131.223 405.324 137.57L344.16 367.57C342.995 371.951 339.029 375 334.496 375H317.806C313.379 375 309.479 372.089 308.219 367.845L261.705 211.134C260.306 206.232 258.906 201.214 257.506 196.078C256.107 190.943 254.824 186.041 253.657 181.373C252.491 176.704 251.441 172.736 250.508 169.468C250.255 168.2 247.962 168.2 247.709 169.468C247.242 172.736 246.426 176.704 245.26 181.373C244.093 186.041 242.81 191.06 241.411 196.429C240.244 201.564 238.845 206.816 237.212 212.185L192.067 367.786C190.827 372.06 186.913 375 182.463 375H165.831C161.293 375 157.324 371.944 156.164 367.557L95.3218 137.557C93.6437 131.213 98.4272 125 104.989 125H117.117C121.69 125 125.681 128.102 126.808 132.534L163.731 277.661C165.131 283.03 166.414 288.399 167.58 293.767C168.746 298.903 169.796 304.038 170.729 309.174C171.896 314.076 172.829 318.861 173.529 323.529C173.889 325.934 177.285 325.922 177.629 323.515C177.662 323.286 177.695 323.058 177.727 322.829C178.661 317.927 179.71 312.908 180.877 307.773C182.043 302.404 183.326 297.035 184.726 291.667C186.125 286.298 187.525 281.046 188.924 275.91L230.911 132.196C232.157 127.931 236.067 125 240.509 125H258.126C262.536 125 266.426 127.89 267.7 132.112L311.392 276.961C313.025 282.33 314.541 287.815 315.941 293.417C317.341 298.786 318.624 304.038 319.79 309.174C320.956 314.309 321.889 319.328 322.589 324.23C323.029 326.432 326.554 326.351 326.926 324.137C327.213 322.435 327.516 320.715 327.838 318.978C329.004 312.442 330.404 305.672 332.037 298.669C333.67 291.667 335.419 284.547 337.285 277.311L373.867 132.55C374.989 128.11 378.983 125 383.563 125H395.66Z" fill="white"/>
</svg>
